<?xml version="1.0" encoding="utf-8"?>
<!-- Generator: Adobe Illustrator 17.1.0, SVG Export Plug-In . SVG Version: 6.00 Build 0)  -->
<!DOCTYPE svg PUBLIC "-//W3C//DTD SVG 1.1//EN" "http://www.w3.org/Graphics/SVG/1.1/DTD/svg11.dtd">
<svg version="1.1" id="olympics" xmlns="http://www.w3.org/2000/svg" xmlns:xlink="http://www.w3.org/1999/xlink" x="0px" y="0px"
	 viewBox="0 0 1010 1010" enable-background="new 0 0 1010 1010" xml:space="preserve">
<g>
	<path id="olympics-label" fill="#FFB400" d="M1010,505c0,278.9111-226.0996,505-505,505S0,783.9111,0,505
		C0,226.1104,226.0996,0,505,0S1010,226.1104,1010,505z"/>
	<g id="olympics-olympics">
		<g>
			<path fill="#000000" d="M406.5645,639.4365c-51.9795,0-94.271-42.3027-94.271-94.2929c0-51.9795,42.2915-94.271,94.271-94.271
				c51.9794,0,94.2709,42.2915,94.2709,94.271C500.8354,597.1338,458.5439,639.4365,406.5645,639.4365L406.5645,639.4365z
				 M406.5645,471.0811c-40.8448,0-74.0625,33.2172-74.0625,74.0625c0,40.8554,33.2177,74.0839,74.0625,74.0839
				c40.8452,0,74.0625-33.2285,74.0625-74.0839C480.627,504.2983,447.4097,471.0811,406.5645,471.0811L406.5645,471.0811z"/>
		</g>
		<g>
			<path fill="#000000" d="M601.8799,639.4365c-51.9912,0-94.293-42.3027-94.293-94.2929c0-51.9795,42.3018-94.271,94.293-94.271
				c51.9678,0,94.249,42.2915,94.249,94.271C696.1289,597.1338,653.8477,639.4365,601.8799,639.4365L601.8799,639.4365z
				 M601.8799,471.0811c-40.8555,0-74.084,33.2172-74.084,74.0625c0,40.8554,33.2285,74.0839,74.084,74.0839
				c40.8232,0,74.04-33.2285,74.04-74.0839C675.9199,504.2983,642.7031,471.0811,601.8799,471.0811L601.8799,471.0811z"/>
		</g>
		<g>
			<path fill="#000000" d="M308.6113,559.1055c-51.9795,0-94.271-42.2921-94.271-94.2715c0-51.979,42.2915-94.2705,94.271-94.2705
				c51.9683,0,94.2491,42.2915,94.2491,94.2705C402.8604,516.8135,360.5796,559.1055,308.6113,559.1055L308.6113,559.1055z
				 M308.6113,390.7725c-40.8452,0-74.0625,33.2172-74.0625,74.0615c0,40.8457,33.2173,74.0625,74.0625,74.0625
				c40.8228,0,74.0406-33.2168,74.0406-74.0625C382.6519,423.9897,349.4341,390.7725,308.6113,390.7725L308.6113,390.7725z"/>
		</g>
		<g>
			<path fill="#000000" d="M505,559.1055c-51.9795,0-94.271-42.2921-94.271-94.2715c0-51.979,42.2915-94.2705,94.271-94.2705
				s94.2715,42.2915,94.2715,94.2705C599.2715,516.8135,556.9795,559.1055,505,559.1055L505,559.1055z M505,390.7725
				c-40.8447,0-74.062,33.2172-74.062,74.0615c0,40.8457,33.2173,74.0625,74.062,74.0625c40.8457,0,74.0625-33.2168,74.0625-74.0625
				C579.0625,423.9897,545.8457,390.7725,505,390.7725L505,390.7725z"/>
		</g>
		<g>
			<path fill="#000000" d="M701.3887,559.1055c-51.9785,0-94.2705-42.2921-94.2705-94.2715
				c0-51.979,42.2921-94.2705,94.2705-94.2705c51.9795,0,94.2715,42.2915,94.2715,94.2705
				C795.6602,516.8135,753.3682,559.1055,701.3887,559.1055L701.3887,559.1055z M701.3887,390.7725
				c-40.8448,0-74.0616,33.2172-74.0616,74.0615c0,40.8457,33.2168,74.0625,74.0616,74.0625
				c40.8447,0,74.0625-33.2168,74.0625-74.0625C775.4512,423.9897,742.2334,390.7725,701.3887,390.7725L701.3887,390.7725z"/>
		</g>
	</g>
</g>
</svg>
